<svg width="87" height="56" viewBox="0 0 87 56" fill="none" xmlns="http://www.w3.org/2000/svg">
<path d="M0.488262 0.499998H6.43826V22.83H21.4883V25H0.488262V0.499998ZM31.4116 25.35C28.9149 25.35 27.0366 24.895 25.7766 23.985C24.5399 23.0517 23.9216 21.745 23.9216 20.065C23.9216 18.2917 24.6566 16.9267 26.1266 15.97C27.5966 15.0133 29.7199 14.535 32.4966 14.535H37.0816V13.38C37.0816 12.0733 36.7199 11.07 35.9966 10.37C35.2732 9.67 34.2349 9.32 32.8816 9.32C31.5516 9.32 30.4899 9.65833 29.6966 10.335C28.9266 11.0117 28.4482 12.0033 28.2616 13.31H24.4116C24.6682 11.42 25.5666 9.985 27.1066 9.005C28.6466 8.00167 30.7349 7.5 33.3716 7.5C36.2649 7.5 38.4699 8.03667 39.9866 9.11C41.5032 10.1833 42.2616 11.735 42.2616 13.765V19.295C42.2616 21.4183 42.4366 23.32 42.7866 25H37.9566C37.7232 24.1133 37.5599 23.3317 37.4666 22.655C36.7899 23.6117 35.9149 24.3 34.8416 24.72C33.7916 25.14 32.6482 25.35 31.4116 25.35ZM32.4966 23.6C33.9432 23.6 35.0632 23.215 35.8566 22.445C36.6732 21.6517 37.0816 20.6017 37.0816 19.295V16.355H33.9666C32.4032 16.355 31.2016 16.6817 30.3616 17.335C29.5216 17.965 29.1016 18.8633 29.1016 20.03C29.1016 21.22 29.3816 22.1183 29.9416 22.725C30.5249 23.3083 31.3766 23.6 32.4966 23.6ZM45.107 7.85H50.427L56.832 20.17L63.202 7.85H66.317L57.567 25.35H54.382L45.107 7.85ZM74.5463 25.35C72.0497 25.35 70.1713 24.895 68.9113 23.985C67.6747 23.0517 67.0563 21.745 67.0563 20.065C67.0563 18.2917 67.7913 16.9267 69.2613 15.97C70.7313 15.0133 72.8547 14.535 75.6313 14.535H80.2163V13.38C80.2163 12.0733 79.8547 11.07 79.1313 10.37C78.408 9.67 77.3697 9.32 76.0163 9.32C74.6863 9.32 73.6247 9.65833 72.8313 10.335C72.0613 11.0117 71.583 12.0033 71.3963 13.31H67.5463C67.803 11.42 68.7013 9.985 70.2413 9.005C71.7813 8.00167 73.8697 7.5 76.5063 7.5C79.3997 7.5 81.6047 8.03667 83.1213 9.11C84.638 10.1833 85.3963 11.735 85.3963 13.765V19.295C85.3963 21.4183 85.5713 23.32 85.9213 25H81.0913C80.858 24.1133 80.6947 23.3317 80.6013 22.655C79.9247 23.6117 79.0497 24.3 77.9763 24.72C76.9263 25.14 75.783 25.35 74.5463 25.35ZM75.6313 23.6C77.078 23.6 78.198 23.215 78.9913 22.445C79.808 21.6517 80.2163 20.6017 80.2163 19.295V16.355H77.1013C75.538 16.355 74.3363 16.6817 73.4963 17.335C72.6563 17.965 72.2363 18.8633 72.2363 20.03C72.2363 21.22 72.5163 22.1183 73.0763 22.725C73.6597 23.3083 74.5113 23.6 75.6313 23.6ZM9.87414 55L5.16414 49.1C5.04414 49.1067 4.86081 49.11 4.61414 49.11C3.95414 49.11 3.18081 49.0767 2.29414 49.01V55H0.0741408V40.55C1.58747 40.21 3.15081 40.04 4.76414 40.04C6.95747 40.04 8.58414 40.4 9.64414 41.12C10.7041 41.8333 11.2341 42.9733 11.2341 44.54C11.2341 45.6733 10.9141 46.6 10.2741 47.32C9.64081 48.04 8.70081 48.5433 7.45414 48.83L12.4241 55H9.87414ZM2.29414 47.31C2.74747 47.3567 3.14414 47.39 3.48414 47.41C3.83081 47.43 4.23747 47.44 4.70414 47.44C6.23747 47.44 7.35414 47.21 8.05414 46.75C8.75414 46.2833 9.10414 45.5567 9.10414 44.57C9.10414 43.87 8.95747 43.31 8.66414 42.89C8.37747 42.47 7.92747 42.1667 7.31414 41.98C6.70747 41.7933 5.90747 41.7 4.91414 41.7C4.41414 41.7 3.96414 41.72 3.56414 41.76C3.16414 41.8 2.74081 41.86 2.29414 41.94V47.31ZM18.8366 55.2C17.7233 55.2 16.7533 54.99 15.9266 54.57C15.1066 54.15 14.47 53.52 14.0166 52.68C13.57 51.84 13.3466 50.8 13.3466 49.56C13.3466 48.3333 13.5666 47.3033 14.0066 46.47C14.4533 45.63 15.0866 45 15.9066 44.58C16.7266 44.16 17.7033 43.95 18.8366 43.95C20.57 43.95 21.9166 44.4233 22.8766 45.37C23.8366 46.31 24.3166 47.7067 24.3166 49.56C24.3166 50.78 24.09 51.8133 23.6366 52.66C23.1833 53.5 22.5433 54.1333 21.7166 54.56C20.8966 54.9867 19.9366 55.2 18.8366 55.2ZM18.8366 53.44C21.01 53.44 22.0966 52.15 22.0966 49.57C22.0966 48.23 21.8166 47.2533 21.2566 46.64C20.6966 46.02 19.89 45.71 18.8366 45.71C17.7833 45.71 16.9733 46.0167 16.4066 46.63C15.8466 47.2433 15.5666 48.2167 15.5666 49.55C15.5666 52.1433 16.6566 53.44 18.8366 53.44ZM30.8735 43.95C32.0202 43.95 32.9535 44.0867 33.6735 44.36C34.3935 44.6267 34.9335 45.0733 35.2935 45.7C35.6535 46.3267 35.8335 47.18 35.8335 48.26V55H33.9735L33.8135 53.83H33.6935C33.2868 54.2567 32.7735 54.59 32.1535 54.83C31.5335 55.0633 30.8735 55.18 30.1735 55.18C29.3735 55.18 28.6902 55.0567 28.1235 54.81C27.5568 54.5567 27.1268 54.2033 26.8335 53.75C26.5402 53.2967 26.3935 52.7633 26.3935 52.15C26.3935 51.1833 26.7535 50.4367 27.4735 49.91C28.2002 49.3767 29.3535 49.04 30.9335 48.9L33.6535 48.63V48.11C33.6535 47.47 33.5435 46.97 33.3235 46.61C33.1035 46.25 32.7702 45.9967 32.3235 45.85C31.8835 45.7033 31.2968 45.63 30.5635 45.63C30.0568 45.63 29.5068 45.6733 28.9135 45.76C28.3268 45.8467 27.7635 45.9767 27.2235 46.15V44.49C27.7568 44.3167 28.3468 44.1833 28.9935 44.09C29.6468 43.9967 30.2735 43.95 30.8735 43.95ZM30.7635 53.64C31.2968 53.64 31.8135 53.5467 32.3135 53.36C32.8135 53.1667 33.2602 52.88 33.6535 52.5V49.95L31.1035 50.2C30.2168 50.3 29.5835 50.4933 29.2035 50.78C28.8235 51.06 28.6335 51.46 28.6335 51.98C28.6335 52.5067 28.8102 52.9167 29.1635 53.21C29.5168 53.4967 30.0502 53.64 30.7635 53.64ZM42.3157 55.2C40.949 55.2 39.709 55.04 38.5957 54.72V53.11C39.789 53.4433 41.0324 53.61 42.3257 53.61C43.3257 53.61 44.0457 53.4767 44.4857 53.21C44.9257 52.9367 45.1457 52.54 45.1457 52.02C45.1457 51.74 45.0957 51.51 44.9957 51.33C44.8957 51.1433 44.7257 50.99 44.4857 50.87C44.2457 50.7433 43.9157 50.6467 43.4957 50.58L41.5657 50.28C40.4457 50.1 39.6357 49.76 39.1357 49.26C38.6424 48.76 38.3957 48.09 38.3957 47.25C38.3957 46.23 38.8157 45.4267 39.6557 44.84C40.5024 44.2467 41.7924 43.95 43.5257 43.95C44.0724 43.95 44.6157 43.9867 45.1557 44.06C45.7024 44.1267 46.2057 44.2267 46.6657 44.36V45.96C45.6524 45.68 44.609 45.54 43.5357 45.54C42.4357 45.54 41.659 45.6833 41.2057 45.97C40.7524 46.2567 40.5257 46.6533 40.5257 47.16C40.5257 47.54 40.6424 47.85 40.8757 48.09C41.109 48.3233 41.5257 48.4933 42.1257 48.6L44.0557 48.9C45.169 49.0733 45.9857 49.3933 46.5057 49.86C47.0257 50.3267 47.2857 51.0033 47.2857 51.89C47.2857 52.5767 47.099 53.1667 46.7257 53.66C46.359 54.1533 45.8024 54.5333 45.0557 54.8C44.3157 55.0667 43.4024 55.2 42.3157 55.2ZM55.0216 53.38C55.235 53.38 55.4516 53.3667 55.6716 53.34C55.8916 53.3133 56.165 53.2667 56.4916 53.2V54.96C55.8116 55.12 55.135 55.2 54.4616 55.2C53.1216 55.2 52.1016 54.8733 51.4016 54.22C50.7016 53.5667 50.3516 52.58 50.3516 51.26V45.91H48.1816V44.12H50.3516L50.7316 40.2H52.5716V44.12H56.3416V45.91H52.5716V50.85C52.5716 51.75 52.7716 52.3967 53.1716 52.79C53.5716 53.1833 54.1883 53.38 55.0216 53.38ZM67.763 50.22H59.873C59.913 51.0067 60.083 51.6433 60.383 52.13C60.683 52.61 61.133 52.9633 61.733 53.19C62.333 53.4167 63.103 53.53 64.043 53.53C64.9764 53.53 66.0097 53.3867 67.143 53.1V54.75C65.963 55.05 64.8264 55.2 63.733 55.2C61.7064 55.2 60.1864 54.7433 59.173 53.83C58.1664 52.91 57.663 51.4933 57.663 49.58C57.663 48.38 57.8664 47.36 58.273 46.52C58.6797 45.68 59.2664 45.0433 60.033 44.61C60.8064 44.17 61.7364 43.95 62.823 43.95C64.423 43.95 65.6464 44.44 66.493 45.42C67.3397 46.3933 67.763 47.8 67.763 49.64V50.22ZM62.793 45.42C61.8597 45.42 61.1464 45.7033 60.653 46.27C60.1597 46.83 59.8964 47.7 59.863 48.88H65.673C65.6464 47.7 65.393 46.83 64.913 46.27C64.433 45.7033 63.7264 45.42 62.793 45.42ZM70.2652 44.12H72.0952L72.2652 45.51H72.3952C72.7886 45.0367 73.2952 44.6667 73.9152 44.4C74.5419 44.1333 75.1952 44 75.8752 44C76.2619 44 76.6252 44.0333 76.9652 44.1V46.09C76.6386 46.03 76.2386 46 75.7652 46C75.1786 46 74.5819 46.1133 73.9752 46.34C73.3686 46.5667 72.8719 46.9033 72.4852 47.35V55H70.2652V44.12ZM81.9837 55.2C80.617 55.2 79.377 55.04 78.2637 54.72V53.11C79.457 53.4433 80.7003 53.61 81.9937 53.61C82.9937 53.61 83.7137 53.4767 84.1537 53.21C84.5937 52.9367 84.8137 52.54 84.8137 52.02C84.8137 51.74 84.7637 51.51 84.6637 51.33C84.5637 51.1433 84.3937 50.99 84.1537 50.87C83.9137 50.7433 83.5837 50.6467 83.1637 50.58L81.2337 50.28C80.1137 50.1 79.3037 49.76 78.8037 49.26C78.3103 48.76 78.0637 48.09 78.0637 47.25C78.0637 46.23 78.4837 45.4267 79.3237 44.84C80.1703 44.2467 81.4603 43.95 83.1937 43.95C83.7403 43.95 84.2837 43.9867 84.8237 44.06C85.3703 44.1267 85.8737 44.2267 86.3337 44.36V45.96C85.3203 45.68 84.277 45.54 83.2037 45.54C82.1037 45.54 81.327 45.6833 80.8737 45.97C80.4203 46.2567 80.1937 46.6533 80.1937 47.16C80.1937 47.54 80.3103 47.85 80.5437 48.09C80.777 48.3233 81.1937 48.4933 81.7937 48.6L83.7237 48.9C84.837 49.0733 85.6537 49.3933 86.1737 49.86C86.6937 50.3267 86.9537 51.0033 86.9537 51.89C86.9537 52.5767 86.767 53.1667 86.3937 53.66C86.027 54.1533 85.4703 54.5333 84.7237 54.8C83.9837 55.0667 83.0703 55.2 81.9837 55.2Z" fill="#3D3017"/>
</svg>
